<?xml version="1.0" standalone="no"?><!DOCTYPE svg PUBLIC "-//W3C//DTD SVG 1.1//EN" "http://www.w3.org/Graphics/SVG/1.1/DTD/svg11.dtd"><svg t="1628586631877" class="icon" viewBox="0 0 1024 1024" version="1.1" xmlns="http://www.w3.org/2000/svg" p-id="1026" xmlns:xlink="http://www.w3.org/1999/xlink" width="200" height="200"><defs><style type="text/css"></style></defs><path d="M-139.44124754 872.81239229a651.44124754 130.66699465 0 1 0 1302.88249508 0 651.44124754 130.66699465 0 1 0-1302.88249508 0Z" fill="#e6e6e6" p-id="1027"></path><path d="M57.5061066 384.23145631h155.28541279c13.2560719 0 24.61841942 7.57489879 30.29959385 18.93724632l51.13056323 109.83602396c5.68117312 11.36234753 17.04352065 18.93724502 30.29959254 18.93724502H701.37245536c13.2560719 0 24.61841942-7.57489879 30.29959383-18.93724502l51.13056196-109.83602396c5.68117312-11.36234753 17.04352065-18.93724502 30.29959383-18.93724632H966.4938934c18.93724502 0 32.19331692 15.14979628 32.19331819 35.98076697v450.70644464c0 18.93724502-15.14979628 35.98076695-32.19331819 35.98076695H57.5061066c-18.93724502 0-32.19331692-15.14979628-32.19331819-35.98076695V418.31849891c-1.89372437-18.93724502 13.2560719-34.08704258 32.19331819-34.0870426z" fill="#e6e6e6" p-id="1028"></path><path d="M966.4938934 920.15550679H57.5061066c-26.51214381 0-49.23683887-22.72469505-49.23683885-51.13056324V418.31849891c0-28.40586817 22.72469505-51.13056323 49.23683885-51.13056324h155.28541279c18.93724502 0 35.98076695 11.36234753 43.55566574 28.40586817l51.13056323 109.83602395c3.78744874 5.68117312 9.46862316 9.46862316 15.14979628 9.46862317h378.74491072c5.68117312 0 11.36234753-3.78744874 15.14979628-9.46862317l51.13056323-109.83602395c7.57489879-17.04352065 24.61841942-28.40586817 43.55566574-28.40586817H966.4938934c26.51214381 0 49.23683887 22.72469505 49.23683885 51.13056324v450.70644464c0 28.40586817-20.83097069 51.13056323-49.23683885 51.13056324zM57.5061066 399.38125259c-9.46862316 0-17.04352065 7.57489879-17.04352193 18.93724632v450.70644464c0 11.36234753 7.57489879 18.93724502 17.04352193 18.93724502h908.9877868c9.46862316 0 17.04352065-7.57489879 17.04352193-18.93724502V418.31849891c0-11.36234753-7.57489879-18.93724502-17.04352193-18.93724632h-155.28541279c-5.68117312 0-11.36234753 3.78744874-15.14979757 9.46862316l-51.13056193 109.83602396c-7.57489879 17.04352065-24.61841942 28.40586817-43.55566575 28.40586816H322.62754464c-18.93724502 0-35.98076695-11.36234753-43.55566575-28.40586816L227.94131696 410.74360012c-3.78744874-5.68117312-9.46862316-9.46862316-15.14979757-9.46862316H57.5061066z" fill="#798294" p-id="1029"></path><path d="M981.64368965 408.84987575L769.54653924 147.51588646c-3.78744874-3.78744874-7.57489879-7.57489879-13.2560719-7.57489749H267.70953266c-5.68117312 0-9.46862316 1.89372437-13.2560719 5.68117312L42.35631035 408.84987575l-24.61841944-20.83097069 212.09715041-261.33398798c9.46862316-11.36234753 22.72469505-18.93724502 37.87449134-18.93724632h488.58093468c15.14979628 0 30.29959254 7.57489879 37.87449134 18.93724632l212.09715041 261.33398798-24.61841944 20.83097069z" fill="#798294" p-id="1030"></path></svg>